<?xml version="1.0" encoding="UTF-8"?>
<svg id="Layer_1" xmlns="http://www.w3.org/2000/svg" xmlns:xlink="http://www.w3.org/1999/xlink" version="1.1" viewBox="0 0 512 512">
  <!-- Generator: Adobe Illustrator 29.3.0, SVG Export Plug-In . SVG Version: 2.1.0 Build 146)  -->
  <path d="M510.5,110.7c-2.5-4-7.7-10.8-14.5-10.8h-3.6c0,0-23.2,0-23.2,0v-6.5c0-11.5-14.8-15.2-30-18l-.8-.2c-39.8-7.8-82.9-6.3-118.3,4-23.4,6.8-45.5,19-64.3,35.6-6.3-5.9-12.9-11.2-19.7-15.6-25.6-16.6-71.1-34.8-142.5-27.2-6.9.7-29,3.6-39.4,7.6-9.6,3.6-11.8,12.7-12.3,20.2H15c-2.1,0-6.3,0-13.3,10.5l-1.4,2.1v314.9l.8,1.7c4.3,9.2,11.5,11.8,16.8,12.3l2.3.2,2.1-1c62.4-29.4,132.2-37.7,207.3-24.8,2.3.4,5.3,1.2,8.6,2.1,6.4,1.7,13.1,3.5,18.3,3.4,5.1,0,11.2-1.7,17.1-3.4,3.3-.9,6.4-1.8,8.8-2.2,67.3-11.6,127.6-6.7,184.3,14.9,1.7.6,4.8,2.2,7.9,3.6,8.9,4.3,13.5,6.4,17.1,6.8,10,1.1,15-5.3,18.3-9.5l1.8-2.3V112.8l-1.3-2.1ZM36.5,395.9V136.3h6.2v234.9c0,3.1,1.5,5,3,6.9,1.6,2,2.3,2.6,2.8,3.1,7.6,6.2,17.9,4.2,25.5,2.8,2.1-.4,4.1-.8,5.6-.9.2,0,.3,0,.5,0-14.8,3.4-29.4,7.7-43.6,13ZM237.8,369c-1.9-1-3.9-2-5.9-3-35.5-16.4-74.1-21.1-109.9-21.1s-30.1.9-43.9,2.1V111.7c30.1-5.5,59.3-6,84.8-1.3,31,5.6,56.2,18.6,74.9,38.6v220.1ZM433.8,346.9c-45.2-4.1-106.2-4.7-159.7,22v-220c39.5-42.5,106.8-47.4,157.1-37.5h.1c.6.1,1.3.2,1.9.3.2,0,.4,0,.6,0v235.1ZM475.4,395.9c-12.2-4.5-24.6-8.3-37.1-11.4,2.4.2,4.7.3,7.1.4h1.1c5,.3,13.4.8,18.8-5.3h0c1.7-2.1,5-8,5-11.4v-232h5.2v259.7Z"/>
  <g>
    <path d="M2868.8-208h-192c-88.3,0-160,71.6-160,160v192c0,88.3,71.7,160,160,160h192c88.4,0,160-71.7,160-160V-48c0-88.4-71.6-160-160-160ZM2980.8,144c0,61.8-50.2,112-112,112h-192c-61.8,0-112-50.2-112-112V-48c0-61.8,50.2-112,112-112h192c61.8,0,112,50.2,112,112v192Z"/>
    <path d="M2772.8-80c-70.7,0-128,57.3-128,128s57.3,128,128,128,128-57.3,128-128-57.3-128-128-128ZM2772.8,128c-44.1,0-80-35.9-80-80s35.9-80,80-80,80,35.9,80,80-35.9,80-80,80Z"/>
    <circle cx="2910.4" cy="-89.6" r="17.1"/>
  </g>
  <path d="M2612.8-15h-192c-88.3,0-160,71.6-160,160v192c0,88.3,71.7,160,160,160h192c88.4,0,160-71.7,160-160v-192c0-88.4-71.6-160-160-160ZM2724.8,337c0,61.8-50.2,112-112,112h-192c-61.8,0-112-50.2-112-112v-192c0-61.8,50.2-112,112-112h192c61.8,0,112,50.2,112,112v192Z"/>
</svg>